<svg width="112" height="28" viewBox="0 0 112 28" fill="none" xmlns="http://www.w3.org/2000/svg">
<path d="M1.45425 9.63225H4.47406V20.8047H1.45425V9.63225ZM1.25293 7.94287V5.375H4.67538V7.94287H1.25293Z" fill="#1F2020"/>
<path d="M5.60648 12.1325V9.63225H7.30652V6.81661H10.304V9.63225H13.2343V12.1325H10.304V16.57C10.304 17.1857 10.4158 17.6437 10.6395 17.944C10.8632 18.2293 11.2584 18.372 11.825 18.372C12.2426 18.372 12.7123 18.3194 13.2343 18.2143V20.7146C12.5334 20.8648 11.7281 20.9399 10.8184 20.9399C8.46225 20.9399 7.28415 19.716 7.28415 17.2683V12.1325H5.60648Z" fill="#1F2020"/>
<path d="M14.4925 12.9209C14.4925 11.8547 14.9325 11.0063 15.8123 10.3756C16.7071 9.72986 17.8777 9.407 19.3242 9.407C20.7558 9.407 21.9489 9.71484 22.9033 10.3305C23.8577 10.9462 24.3423 11.8397 24.3572 13.011H21.3598C21.33 12.5755 21.1287 12.2226 20.7558 11.9523C20.383 11.667 19.876 11.5244 19.2348 11.5244C18.6979 11.5244 18.258 11.6295 17.915 11.8397C17.572 12.0499 17.4005 12.3203 17.4005 12.6506C17.4005 12.966 17.5123 13.1987 17.736 13.3489C17.9746 13.4991 18.3549 13.6192 18.8769 13.7093L21.4045 14.2049C23.5072 14.6103 24.5586 15.684 24.5586 17.4259C24.5586 18.5372 24.1186 19.4157 23.2388 20.0614C22.3739 20.7071 21.1361 21.03 19.5256 21.03C17.8404 21.03 16.5505 20.6921 15.6557 20.0163C14.761 19.3406 14.2838 18.402 14.2241 17.2007H17.3558C17.4005 17.7113 17.6167 18.1242 18.0045 18.4396C18.3922 18.7549 18.9365 18.9126 19.6374 18.9126C20.2936 18.9126 20.7931 18.8075 21.1361 18.5973C21.4791 18.372 21.6506 18.0867 21.6506 17.7413C21.6506 17.1857 21.1585 16.8178 20.1743 16.6376L17.6466 16.1645C15.5439 15.7591 14.4925 14.6779 14.4925 12.9209Z" fill="#1F2020"/>
<path d="M26.2319 20.8047V17.3133H29.6543V20.8047H26.2319Z" fill="#1F2020"/>
<path d="M41.9326 20.8047H39.1812V19.0478C38.3759 20.3692 37.0263 21.03 35.1324 21.03C34.014 21.03 33.0969 20.7371 32.381 20.1515C31.6652 19.5658 31.3073 18.7624 31.3073 17.7413C31.3073 16.7802 31.628 16.0069 32.2692 15.4212C32.9254 14.8356 33.8201 14.4451 34.9535 14.2499L38.9799 13.5516V13.2813C38.9799 12.6957 38.786 12.2602 38.3983 11.9749C38.0106 11.6745 37.4812 11.5244 36.8101 11.5244C35.5276 11.5244 34.8342 12.0424 34.7298 13.0786H31.71C31.7696 11.8923 32.2394 10.9838 33.1192 10.3531C34.014 9.72235 35.2443 9.407 36.8101 9.407C40.2251 9.407 41.9326 10.8711 41.9326 13.7994V20.8047ZM35.9601 18.8225C36.7504 18.8225 37.4513 18.5822 38.0628 18.1017C38.6742 17.6212 38.9799 16.9754 38.9799 16.1645V15.6465L35.9601 16.1871C35.3337 16.2922 34.8789 16.4499 34.5956 16.6601C34.3271 16.8703 34.1929 17.1857 34.1929 17.6061C34.1929 17.9816 34.3495 18.2819 34.6627 18.5072C34.9758 18.7174 35.4083 18.8225 35.9601 18.8225Z" fill="#1F2020"/>
<path d="M54.7086 9.63225V19.7686C54.7086 21.4655 54.1866 22.7644 53.1427 23.6654C52.1138 24.5664 50.7493 25.0169 49.0492 25.0169C45.5149 25.0169 43.6658 23.7931 43.5017 21.3453H46.5215C46.5961 21.8559 46.8272 22.2313 47.215 22.4716C47.6176 22.7269 48.229 22.8545 49.0492 22.8545C50.8089 22.8545 51.6888 21.961 51.6888 20.174V18.9351C50.8686 19.9413 49.7501 20.4443 48.3334 20.4443C46.872 20.4443 45.6566 19.9488 44.6873 18.9577C43.7329 17.9515 43.2557 16.615 43.2557 14.9482C43.2557 13.2663 43.7329 11.9223 44.6873 10.9162C45.6566 9.91006 46.8571 9.407 48.2887 9.407C49.8098 9.407 50.9953 9.97013 51.8453 11.0964V9.63225H54.7086ZM47.1255 12.6281C46.6483 13.2438 46.4097 14.0096 46.4097 14.9257C46.4097 15.8417 46.6483 16.6075 47.1255 17.2232C47.6027 17.8239 48.2589 18.1242 49.094 18.1242C49.944 18.1242 50.6076 17.8239 51.0848 17.2232C51.562 16.6075 51.8006 15.8417 51.8006 14.9257C51.8006 14.0096 51.562 13.2438 51.0848 12.6281C50.6076 12.0124 49.944 11.7046 49.094 11.7046C48.2589 11.7046 47.6027 12.0124 47.1255 12.6281Z" fill="#1F2020"/>
<path d="M56.1002 15.2185C56.1002 13.4615 56.6221 12.0575 57.666 11.0063C58.7248 9.94009 60.1415 9.407 61.9161 9.407C63.7056 9.407 65.0999 9.91757 66.0991 10.9387C67.1131 11.9448 67.6202 13.3489 67.6202 15.1509V16.1195H59.1647C59.1945 16.8403 59.4555 17.4635 59.9476 17.9891C60.4546 18.5147 61.1033 18.7775 61.8937 18.7775C62.4902 18.7775 63.0122 18.6423 63.4595 18.372C63.9069 18.0867 64.1977 17.6962 64.3319 17.2007H67.4636C67.225 18.4171 66.5986 19.3631 65.5846 20.0389C64.5854 20.6996 63.3551 21.03 61.8937 21.03C60.1937 21.03 58.7993 20.5194 57.7107 19.4983C56.637 18.4621 56.1002 17.0355 56.1002 15.2185ZM59.1871 14.0472H64.5556C64.5258 13.3264 64.2648 12.7332 63.7727 12.2677C63.2806 11.8022 62.6841 11.5694 61.9832 11.5694C61.2525 11.5694 60.6261 11.8097 60.1042 12.2902C59.5823 12.7708 59.2765 13.3564 59.1871 14.0472Z" fill="#1F2020"/>
<path d="M72.1112 20.8047H69.0914V9.63225H71.977V11.2766C72.7972 10.0302 74.0275 9.407 75.6679 9.407C76.9355 9.407 77.9048 9.78242 78.5759 10.5333C79.2469 11.2841 79.5825 12.3203 79.5825 13.6417V20.8047H76.5627V14.4526C76.5627 12.7107 75.8767 11.8397 74.5047 11.8397C73.7591 11.8397 73.17 12.1175 72.7376 12.6731C72.32 13.2288 72.1112 13.9421 72.1112 14.813V20.8047Z" fill="#1F2020"/>
<path d="M84.7441 12.6957C84.2669 13.3264 84.0208 14.1673 84.0059 15.2185C83.991 16.2697 84.2296 17.1181 84.7217 17.7638C85.2288 18.3945 85.8998 18.7099 86.7349 18.7099C87.3464 18.7099 87.8683 18.5222 88.3008 18.1468C88.7332 17.7713 88.9867 17.2908 89.0613 16.7051H92.193C92.0737 18.0567 91.5144 19.1153 90.5153 19.8812C89.5311 20.647 88.2709 21.03 86.7349 21.03C84.9603 21.03 83.5362 20.5119 82.4625 19.4757C81.3888 18.4246 80.8519 17.0055 80.8519 15.2185C80.8519 13.4315 81.3888 12.0199 82.4625 10.9838C83.5362 9.93259 84.9603 9.407 86.7349 9.407C88.2709 9.407 89.5311 9.78993 90.5153 10.5558C91.5144 11.3216 92.0737 12.3803 92.193 13.7318H89.0613C89.0017 13.1312 88.7481 12.6506 88.3008 12.2902C87.8683 11.9148 87.3464 11.7271 86.7349 11.7271C85.8998 11.7271 85.2362 12.0499 84.7441 12.6957Z" fill="#1F2020"/>
<path d="M99.6009 21.7508C99.1386 22.9221 98.5272 23.7405 97.7667 24.206C97.0061 24.6866 96.0592 24.9268 94.9258 24.9268C94.2846 24.9268 93.7402 24.8893 93.2929 24.8142V22.3139C93.6508 22.374 94.0609 22.404 94.5232 22.404C95.5969 22.404 96.2754 22.0286 96.5587 21.2777L96.6258 21.0975L92.3086 9.63225H95.5298L98.2811 17.7638L101.033 9.63225H104.187L99.6009 21.7508Z" fill="#1F2020"/>
<ellipse cx="108.893" cy="12.6704" rx="3.10679" ry="3.12849" fill="#1F2020"/>
</svg>
