<svg width="190" height="37" viewBox="0 0 190 37" fill="none" xmlns="http://www.w3.org/2000/svg">
<path d="M1.16179 8.00542H6.68912V28.455H1.16179V8.00542ZM0.793304 4.91325V0.213135H7.05761V4.91325H0.793304Z" fill="white"/>
<path d="M8.76186 12.5818V8.00542H11.8735V2.85179H17.3599V8.00542H22.7235V12.5818H17.3599V20.704C17.3599 21.8309 17.5646 22.6692 17.9741 23.2189C18.3835 23.7412 19.1068 24.0023 20.1441 24.0023C20.9083 24.0023 21.7681 23.9061 22.7235 23.7137V28.2901C21.4406 28.565 19.9666 28.7024 18.3016 28.7024C13.9889 28.7024 11.8326 26.4623 11.8326 21.9821V12.5818H8.76186Z" fill="white"/>
<path d="M25.0265 14.0249C25.0265 12.0734 25.8317 10.5204 27.4422 9.36598C29.0799 8.18408 31.2226 7.59313 33.8702 7.59313C36.4906 7.59313 38.6742 8.1566 40.4211 9.28352C42.1681 10.4105 43.0552 12.0459 43.0825 14.1898H37.5961C37.5415 13.3927 37.173 12.7468 36.4906 12.252C35.8082 11.7298 34.8802 11.4687 33.7065 11.4687C32.7238 11.4687 31.9186 11.6611 31.2908 12.0459C30.663 12.4307 30.3491 12.9254 30.3491 13.5301C30.3491 14.1073 30.5538 14.5334 30.9633 14.8082C31.4 15.0831 32.096 15.303 33.0514 15.4679L37.678 16.3749C41.5266 17.117 43.4509 19.0823 43.4509 22.2707C43.4509 24.3046 42.6457 25.9126 41.0353 27.0945C39.4522 28.2764 37.1866 28.8673 34.2387 28.8673C31.1543 28.8673 28.7933 28.2489 27.1556 27.012C25.5178 25.7751 24.6444 24.0573 24.5352 21.8584H30.2672C30.3491 22.7929 30.7449 23.5488 31.4546 24.126C32.1643 24.7032 33.1606 24.9918 34.4434 24.9918C35.6444 24.9918 36.5588 24.7994 37.1866 24.4146C37.8144 24.0023 38.1283 23.4801 38.1283 22.8479C38.1283 21.8309 37.2276 21.1575 35.4261 20.8277L30.7995 19.9618C26.9509 19.2197 25.0265 17.2407 25.0265 14.0249Z" fill="white"/>
<path d="M46.5137 28.455V22.0645H52.778V28.455H46.5137Z" fill="white"/>
<path d="M75.2516 28.455H70.2156V25.2392C68.7416 27.6579 66.2714 28.8673 62.8049 28.8673C60.7577 28.8673 59.0791 28.3313 57.7689 27.2594C56.4587 26.1874 55.8036 24.7169 55.8036 22.8479C55.8036 21.0888 56.3905 19.6732 57.5642 18.6013C58.7652 17.5293 60.4029 16.8147 62.4773 16.4574L69.8471 15.1793V14.6845C69.8471 13.6126 69.4923 12.8155 68.7826 12.2932C68.0729 11.7435 67.1039 11.4687 65.8756 11.4687C63.5282 11.4687 62.259 12.4169 62.0679 14.3135H56.5406C56.6498 12.1421 57.5096 10.4792 59.12 9.32475C60.7577 8.17034 63.0096 7.59313 65.8756 7.59313C72.1263 7.59313 75.2516 10.273 75.2516 15.6328V28.455ZM64.3198 24.8269C65.7664 24.8269 67.0493 24.3871 68.1684 23.5075C69.2876 22.628 69.8471 21.4461 69.8471 19.9618V19.0136L64.3198 20.0031C63.1734 20.1955 62.3409 20.4841 61.8223 20.8689C61.3309 21.2537 61.0853 21.8309 61.0853 22.6005C61.0853 23.2877 61.3719 23.8374 61.9451 24.2497C62.5183 24.6345 63.3099 24.8269 64.3198 24.8269Z" fill="white"/>
<path d="M98.6362 8.00542V26.5585C98.6362 29.6644 97.6809 32.042 95.7702 33.6911C93.8868 35.3403 91.3893 36.1649 88.2776 36.1649C81.8086 36.1649 78.424 33.9247 78.1237 29.4445H83.651C83.7875 30.379 84.2106 31.0662 84.9203 31.506C85.6572 31.9732 86.7764 32.2069 88.2776 32.2069C91.4985 32.2069 93.1089 30.5715 93.1089 27.3006V25.033C91.6076 26.8746 89.5605 27.7954 86.9674 27.7954C84.2925 27.7954 82.0679 26.8883 80.2937 25.0742C78.5468 23.2327 77.6733 20.7864 77.6733 17.7355C77.6733 14.657 78.5468 12.197 80.2937 10.3555C82.0679 8.51392 84.2652 7.59313 86.8855 7.59313C89.6697 7.59313 91.8397 8.62386 93.3955 10.6853V8.00542H98.6362ZM84.7565 13.4889C83.883 14.6158 83.4463 16.0176 83.4463 17.6942C83.4463 19.3709 83.883 20.7727 84.7565 21.8996C85.6299 22.9991 86.8309 23.5488 88.3595 23.5488C89.9153 23.5488 91.13 22.9991 92.0034 21.8996C92.8769 20.7727 93.3136 19.3709 93.3136 17.6942C93.3136 16.0176 92.8769 14.6158 92.0034 13.4889C91.13 12.362 89.9153 11.7985 88.3595 11.7985C86.8309 11.7985 85.6299 12.362 84.7565 13.4889Z" fill="white"/>
<path d="M101.183 18.2302C101.183 15.0144 102.139 12.4444 104.049 10.5204C105.987 8.56889 108.58 7.59313 111.829 7.59313C115.104 7.59313 117.656 8.52766 119.485 10.3967C121.341 12.2383 122.269 14.8082 122.269 18.1065V19.8794H106.793C106.847 21.1987 107.325 22.3394 108.226 23.3014C109.154 24.2634 110.341 24.7444 111.788 24.7444C112.879 24.7444 113.835 24.497 114.654 24.0023C115.472 23.4801 116.005 22.7654 116.25 21.8584H121.982C121.546 24.0847 120.399 25.8164 118.543 27.0532C116.714 28.2626 114.463 28.8673 111.788 28.8673C108.676 28.8673 106.124 27.9328 104.131 26.0637C102.166 24.1672 101.183 21.556 101.183 18.2302ZM106.833 16.0863H116.66C116.605 14.767 116.128 13.6813 115.227 12.8292C114.326 11.9772 113.234 11.5511 111.951 11.5511C110.614 11.5511 109.467 11.9909 108.512 12.8705C107.557 13.75 106.997 14.822 106.833 16.0863Z" fill="white"/>
<path d="M130.489 28.455H124.962V8.00542H130.244V11.0151C131.745 8.7338 133.997 7.59313 136.999 7.59313C139.319 7.59313 141.094 8.28028 142.322 9.65459C143.55 11.0289 144.164 12.9254 144.164 15.3442V28.455H138.637V16.8284C138.637 13.6401 137.381 12.0459 134.87 12.0459C133.505 12.0459 132.427 12.5544 131.636 13.5713C130.871 14.5883 130.489 15.8939 130.489 17.4881V28.455Z" fill="white"/>
<path d="M153.612 13.6126C152.739 14.767 152.288 16.3062 152.261 18.2302C152.234 20.1542 152.67 21.7072 153.571 22.8891C154.499 24.0435 155.727 24.6207 157.256 24.6207C158.375 24.6207 159.33 24.2772 160.122 23.59C160.913 22.9029 161.378 22.0233 161.514 20.9513H167.246C167.028 23.4251 166.004 25.3629 164.175 26.7646C162.374 28.1664 160.067 28.8673 157.256 28.8673C154.008 28.8673 151.401 27.9191 149.436 26.0225C147.471 24.0985 146.488 21.5011 146.488 18.2302C146.488 14.9594 147.471 12.3757 149.436 10.4792C151.401 8.55515 154.008 7.59313 157.256 7.59313C160.067 7.59313 162.374 8.29403 164.175 9.69582C166.004 11.0976 167.028 13.0354 167.246 15.5091H161.514C161.405 14.4097 160.941 13.5301 160.122 12.8705C159.33 12.1833 158.375 11.8397 157.256 11.8397C155.727 11.8397 154.513 12.4307 153.612 13.6126Z" fill="white"/>
<path d="M180.805 30.1866C179.959 32.3306 178.84 33.8285 177.448 34.6806C176.056 35.5602 174.323 35.9999 172.248 35.9999C171.074 35.9999 170.078 35.9312 169.259 35.7938V31.2174C169.914 31.3273 170.665 31.3823 171.511 31.3823C173.476 31.3823 174.718 30.6951 175.237 29.3208L175.36 28.991L167.458 8.00542H173.354L178.39 22.8891L183.426 8.00542H189.199L180.805 30.1866Z" fill="white"/>
</svg>
