<svg width="14" height="14" viewBox="0 0 14 14" fill="none" xmlns="http://www.w3.org/2000/svg">
<path fill-rule="evenodd" clip-rule="evenodd" d="M13.495 0.505074C13.7684 0.778441 13.7684 1.22166 13.495 1.49502L1.49502 13.495C1.22166 13.7684 0.778441 13.7684 0.505074 13.495C0.231707 13.2217 0.231707 12.7784 0.505074 12.5051L12.5051 0.505074C12.7784 0.231707 13.2217 0.231707 13.495 0.505074Z" fill="#1F2020"/>
<path fill-rule="evenodd" clip-rule="evenodd" d="M0.505074 0.505074C0.778441 0.231707 1.22166 0.231707 1.49502 0.505074L13.495 12.5051C13.7684 12.7784 13.7684 13.2217 13.495 13.495C13.2217 13.7684 12.7784 13.7684 12.5051 13.495L0.505074 1.49502C0.231707 1.22166 0.231707 0.778441 0.505074 0.505074Z" fill="#1F2020"/>
</svg>
